<svg width="722" height="778" viewBox="0 0 722 778" fill="none" xmlns="http://www.w3.org/2000/svg">
<path d="M206.697 270.11L480.837 402.218C483.139 402.218 485.41 402.746 487.475 403.762C489.54 404.779 491.344 406.256 492.748 408.08L612.987 564.413L631.136 546.301C633.928 543.507 637.243 541.289 640.892 539.777C644.542 538.264 648.453 537.485 652.403 537.485C656.354 537.485 660.265 538.264 663.915 539.777C667.564 541.289 670.879 543.507 673.671 546.301L697.512 570.162C700.304 572.954 702.519 576.268 704.03 579.915C705.541 583.563 706.319 587.473 706.319 591.421C706.319 595.369 705.541 599.279 704.03 602.926C702.519 606.574 700.304 609.888 697.512 612.68L659.937 650.256L712.542 702.862C715.334 705.653 717.549 708.967 719.06 712.615C720.571 716.263 721.349 720.172 721.349 724.12C721.349 728.069 720.571 731.978 719.06 735.626C717.549 739.273 715.334 742.587 712.542 745.379L688.701 769.202C683.064 774.835 675.421 778 667.452 778C659.483 778 651.84 774.835 646.204 769.202L593.599 716.596L556.024 754.172C553.232 756.966 549.917 759.184 546.268 760.697C542.619 762.209 538.707 762.988 534.757 762.988C530.806 762.988 526.895 762.209 523.246 760.697C519.596 759.184 516.281 756.966 513.489 754.172L489.648 730.311C486.856 727.519 484.641 724.205 483.13 720.558C481.619 716.91 480.841 713.001 480.841 709.052C480.841 705.104 481.619 701.195 483.13 697.547C484.641 693.9 486.856 690.585 489.648 687.794L507.759 669.682L351.429 549.439C349.6 548.031 348.12 546.221 347.104 544.149C346.087 542.077 345.562 539.798 345.568 537.49L191.667 285.14C191.667 281.154 193.251 277.331 196.07 274.512C198.888 271.694 202.711 270.11 206.697 270.11ZM667.415 747.915L691.256 724.092L638.651 671.486L614.829 695.309L667.415 747.915ZM534.757 732.885L676.226 591.43L652.366 567.551L510.897 709.043L534.757 732.885ZM375.628 530.087L529.196 648.227L549.749 627.673L455.173 533.094C452.356 530.273 450.774 526.449 450.775 522.462C450.777 518.476 452.363 514.653 455.183 511.835C458.003 509.017 461.827 507.435 465.814 507.437C469.8 507.439 473.623 509.024 476.441 511.844L571.016 606.404L591.551 585.85L473.435 432.278L216.216 292.694L375.628 530.087Z" fill="#EC6613"/>
<path fill-rule="evenodd" clip-rule="evenodd" d="M0.000244141 360.674C0.000244141 559.869 161.48 721.348 360.674 721.348C378.611 721.348 396.242 720.039 413.477 717.511L347.452 660.635C187.765 653.715 60.4274 522.065 60.4274 360.674C60.4274 194.852 194.853 60.4271 360.674 60.4271C526.496 60.4271 660.922 194.852 660.922 360.674C660.922 395.783 654.895 429.485 643.821 460.801L692.35 502.604C711.014 459.044 721.349 411.066 721.349 360.674C721.349 161.479 559.869 0 360.674 0C161.48 0 0.000244141 161.479 0.000244141 360.674Z" fill="#EC6613"/>
</svg>