<svg width="2084" height="778" viewBox="0 0 2084 778" fill="none" xmlns="http://www.w3.org/2000/svg">
<path d="M206.697 270.11L480.837 402.218C483.139 402.218 485.41 402.746 487.475 403.762C489.54 404.779 491.344 406.256 492.748 408.08L612.987 564.413L631.136 546.301C633.928 543.507 637.243 541.289 640.892 539.777C644.542 538.264 648.453 537.485 652.403 537.485C656.354 537.485 660.265 538.264 663.915 539.777C667.564 541.289 670.879 543.507 673.671 546.301L697.512 570.162C700.304 572.954 702.519 576.268 704.03 579.915C705.541 583.563 706.319 587.473 706.319 591.421C706.319 595.369 705.541 599.279 704.03 602.926C702.519 606.574 700.304 609.888 697.512 612.68L659.937 650.256L712.542 702.862C715.334 705.653 717.549 708.967 719.06 712.615C720.571 716.263 721.349 720.172 721.349 724.12C721.349 728.069 720.571 731.978 719.06 735.626C717.549 739.273 715.334 742.587 712.542 745.379L688.701 769.202C683.064 774.835 675.421 778 667.452 778C659.483 778 651.84 774.835 646.204 769.202L593.599 716.596L556.024 754.172C553.232 756.966 549.917 759.184 546.268 760.697C542.619 762.209 538.707 762.988 534.757 762.988C530.806 762.988 526.895 762.209 523.246 760.697C519.596 759.184 516.281 756.966 513.489 754.172L489.648 730.311C486.856 727.519 484.641 724.205 483.13 720.558C481.619 716.91 480.841 713.001 480.841 709.052C480.841 705.104 481.619 701.195 483.13 697.547C484.641 693.9 486.856 690.585 489.648 687.794L507.759 669.682L351.429 549.439C349.6 548.031 348.12 546.221 347.104 544.149C346.087 542.077 345.562 539.798 345.568 537.49L191.667 285.14C191.667 281.154 193.251 277.331 196.07 274.512C198.888 271.694 202.711 270.11 206.697 270.11ZM667.415 747.915L691.256 724.092L638.651 671.486L614.829 695.309L667.415 747.915ZM534.757 732.885L676.226 591.43L652.366 567.551L510.897 709.043L534.757 732.885ZM375.628 530.087L529.196 648.227L549.749 627.673L455.173 533.094C452.356 530.273 450.774 526.449 450.775 522.462C450.777 518.476 452.363 514.653 455.183 511.835C458.003 509.017 461.827 507.435 465.814 507.437C469.8 507.439 473.623 509.024 476.441 511.844L571.016 606.404L591.551 585.85L473.435 432.278L216.216 292.694L375.628 530.087Z" fill="#EC6613"/>
<path fill-rule="evenodd" clip-rule="evenodd" d="M0.000244141 360.674C0.000244141 559.869 161.48 721.348 360.674 721.348C378.611 721.348 396.242 720.039 413.477 717.511L347.452 660.635C187.765 653.715 60.4274 522.065 60.4274 360.674C60.4274 194.852 194.853 60.4271 360.674 60.4271C526.496 60.4271 660.922 194.852 660.922 360.674C660.922 395.783 654.895 429.485 643.821 460.801L692.35 502.604C711.014 459.044 721.349 411.066 721.349 360.674C721.349 161.479 559.869 0 360.674 0C161.48 0 0.000244141 161.479 0.000244141 360.674Z" fill="#EC6613"/>
<path d="M832.783 577.764C836.223 577.764 839.09 578.997 841.383 581.465C843.841 583.768 845.069 586.729 845.069 590.347V655.241C845.069 672.349 840.319 685.755 830.817 695.46C821.315 705.001 807.882 709.772 790.517 709.772C773.315 709.772 759.964 705.001 750.462 695.46C741.124 685.755 736.455 672.349 736.455 655.241V590.347C736.455 586.729 737.602 583.768 739.895 581.465C742.189 578.997 745.138 577.764 748.742 577.764C752.182 577.764 755.049 578.997 757.342 581.465C759.8 583.768 761.028 586.729 761.028 590.347V655.241C761.028 665.933 763.486 673.911 768.4 679.175C773.479 684.439 780.851 687.071 790.517 687.071C800.346 687.071 807.8 684.439 812.878 679.175C817.957 673.911 820.496 665.933 820.496 655.241V590.347C820.496 586.729 821.643 583.768 823.936 581.465C826.23 578.997 829.179 577.764 832.783 577.764Z" fill="#EC6613"/>
<path d="M902.339 694.967C902.339 698.586 901.192 701.629 898.899 704.096C896.605 706.399 893.656 707.551 890.052 707.551C886.612 707.551 883.663 706.399 881.206 704.096C878.912 701.629 877.765 698.586 877.765 694.967V589.36C877.765 585.742 878.912 582.781 881.206 580.478C883.663 578.01 886.612 576.777 890.052 576.777C893.656 576.777 896.605 578.01 898.899 580.478C901.192 582.781 902.339 585.742 902.339 589.36V694.967ZM889.806 560.491C885.056 560.491 881.615 559.669 879.486 558.024C877.356 556.215 876.291 553.254 876.291 549.141V545.193C876.291 541.081 877.438 538.202 879.731 536.557C882.025 534.912 885.465 534.09 890.052 534.09C894.967 534.09 898.489 534.995 900.619 536.804C902.748 538.449 903.813 541.245 903.813 545.193V549.141C903.813 553.418 902.666 556.379 900.373 558.024C898.243 559.669 894.721 560.491 889.806 560.491Z" fill="#EC6613"/>
<path d="M992.65 574.803C1001.5 574.803 1009.36 575.79 1016.24 577.764C1023.12 579.573 1028.44 582.205 1032.21 585.659C1036.14 588.949 1038.11 592.815 1038.11 597.256C1038.11 600.053 1037.29 602.685 1035.65 605.152C1034.01 607.455 1031.56 608.607 1028.28 608.607C1025.99 608.607 1024.02 608.195 1022.38 607.373C1020.91 606.55 1019.52 605.563 1018.21 604.412C1016.9 603.26 1015.26 602.109 1013.29 600.957C1011.49 599.97 1008.79 599.148 1005.18 598.49C1001.74 597.832 998.629 597.503 995.844 597.503C987.162 597.503 979.626 599.477 973.237 603.425C967.012 607.373 962.097 612.719 958.493 619.463C955.052 626.208 953.332 633.857 953.332 642.41C953.332 650.964 955.052 658.613 958.493 665.358C962.097 672.102 966.93 677.448 972.991 681.396C979.216 685.344 986.425 687.318 994.616 687.318C999.53 687.318 1003.54 686.989 1006.66 686.331C1009.77 685.508 1012.47 684.521 1014.77 683.37C1017.22 681.889 1019.27 680.409 1020.91 678.929C1022.71 677.284 1025.17 676.461 1028.28 676.461C1031.89 676.461 1034.59 677.613 1036.39 679.916C1038.36 682.054 1039.34 684.768 1039.34 688.058C1039.34 691.677 1037.13 695.214 1032.7 698.668C1028.44 701.958 1022.71 704.672 1015.5 706.811C1008.29 708.949 1000.35 710.018 991.667 710.018C978.889 710.018 967.749 707.057 958.247 701.136C948.909 695.214 941.619 687.153 936.377 676.955C931.298 666.756 928.759 655.241 928.759 642.41C928.759 629.415 931.462 617.901 936.868 607.866C942.274 597.668 949.81 589.607 959.476 583.685C969.141 577.764 980.199 574.803 992.65 574.803Z" fill="#EC6613"/>
<path d="M1077.07 707.551C1073.63 707.551 1070.68 706.399 1068.23 704.096C1065.93 701.629 1064.79 698.586 1064.79 694.967V537.544C1064.79 533.925 1065.93 530.964 1068.23 528.661C1070.68 526.194 1073.63 524.96 1077.07 524.96C1080.68 524.96 1083.63 526.194 1085.92 528.661C1088.21 530.964 1089.36 533.925 1089.36 537.544V694.967C1089.36 698.586 1088.21 701.629 1085.92 704.096C1083.63 706.399 1080.68 707.551 1077.07 707.551ZM1157.18 577.27C1160.29 577.27 1163 578.586 1165.29 581.218C1167.58 583.85 1168.73 586.482 1168.73 589.114C1168.73 592.404 1167.18 595.447 1164.06 598.243L1087.15 667.332L1086.16 638.956L1148.09 581.218C1150.71 578.586 1153.74 577.27 1157.18 577.27ZM1160.13 707.304C1156.69 707.304 1153.74 705.906 1151.28 703.109L1102.14 651.046L1120.81 633.774L1168.73 685.837C1171.35 688.634 1172.66 691.759 1172.66 695.214C1172.66 698.833 1171.19 701.793 1168.24 704.096C1165.45 706.235 1162.75 707.304 1160.13 707.304Z" fill="#EC6613"/>
<path d="M1351.56 443.306L1246.63 694.203C1244.77 699.159 1241.97 703.031 1238.24 705.818C1234.51 708.606 1230.31 710 1225.65 710C1218.81 710 1213.68 708.142 1210.26 704.425C1206.84 700.398 1204.97 695.442 1204.66 689.557C1204.66 687.388 1205.13 684.91 1206.06 682.123L1324.51 396.844C1326.69 391.578 1329.8 387.551 1333.84 384.763C1338.19 381.976 1342.85 380.737 1347.83 381.046C1352.49 381.046 1356.84 382.44 1360.89 385.228C1364.93 388.016 1367.88 391.888 1369.75 396.844L1486.8 677.941C1488.04 681.038 1488.66 684.136 1488.66 687.233C1488.66 694.048 1486.33 699.623 1481.67 703.96C1477.32 707.987 1472.34 710 1466.75 710C1462.08 710 1457.73 708.606 1453.69 705.818C1449.96 702.721 1447.16 698.849 1445.29 694.203L1339.43 444.7L1351.56 443.306ZM1265.29 628.226L1286.27 583.622H1418.25L1426.17 628.226H1265.29Z" fill="#EC6613"/>
<path d="M1500.26 579.267H1558.22C1561.51 579.267 1564.23 580.418 1566.36 582.72C1568.67 584.858 1569.82 587.571 1569.82 590.86C1569.82 593.984 1568.67 596.616 1566.36 598.753C1564.23 600.891 1561.51 601.96 1558.22 601.96H1500.26C1496.97 601.96 1494.17 600.891 1491.87 598.753C1489.73 596.451 1488.66 593.738 1488.66 590.613C1488.66 587.324 1489.73 584.611 1491.87 582.473C1494.17 580.336 1496.97 579.267 1500.26 579.267ZM1526.16 547.2C1529.77 547.2 1532.73 548.433 1535.04 550.9C1537.34 553.202 1538.49 556.162 1538.49 559.78V674.233C1538.49 677.193 1538.98 679.578 1539.97 681.387C1540.96 683.196 1542.27 684.429 1543.92 685.087C1545.73 685.744 1547.53 686.073 1549.34 686.073C1551.15 686.073 1552.71 685.744 1554.03 685.087C1555.51 684.429 1557.24 684.1 1559.21 684.1C1561.18 684.1 1562.99 685.004 1564.64 686.813C1566.28 688.622 1567.1 691.089 1567.1 694.213C1567.1 698.16 1564.97 701.367 1560.69 703.833C1556.42 706.3 1551.81 707.533 1546.88 707.533C1544.08 707.533 1540.79 707.287 1537.01 706.793C1533.23 706.3 1529.53 705.067 1525.91 703.093C1522.46 701.12 1519.58 697.996 1517.28 693.72C1514.97 689.28 1513.82 683.113 1513.82 675.22V559.78C1513.82 556.162 1514.97 553.202 1517.28 550.9C1519.74 548.433 1522.7 547.2 1526.16 547.2Z" fill="#EC6613"/>
<path d="M1595.41 579.267H1653.37C1656.66 579.267 1659.38 580.418 1661.51 582.72C1663.82 584.858 1664.97 587.571 1664.97 590.86C1664.97 593.984 1663.82 596.616 1661.51 598.753C1659.38 600.891 1656.66 601.96 1653.37 601.96H1595.41C1592.12 601.96 1589.32 600.891 1587.02 598.753C1584.88 596.451 1583.81 593.738 1583.81 590.613C1583.81 587.324 1584.88 584.611 1587.02 582.473C1589.32 580.336 1592.12 579.267 1595.41 579.267ZM1621.31 547.2C1624.93 547.2 1627.89 548.433 1630.19 550.9C1632.49 553.202 1633.64 556.162 1633.64 559.78V674.233C1633.64 677.193 1634.13 679.578 1635.12 681.387C1636.11 683.196 1637.42 684.429 1639.07 685.087C1640.88 685.744 1642.69 686.073 1644.49 686.073C1646.3 686.073 1647.87 685.744 1649.18 685.087C1650.66 684.429 1652.39 684.1 1654.36 684.1C1656.33 684.1 1658.14 685.004 1659.79 686.813C1661.43 688.622 1662.25 691.089 1662.25 694.213C1662.25 698.16 1660.12 701.367 1655.84 703.833C1651.57 706.3 1646.96 707.533 1642.03 707.533C1639.23 707.533 1635.94 707.287 1632.16 706.793C1628.38 706.3 1624.68 705.067 1621.06 703.093C1617.61 701.12 1614.73 697.996 1612.43 693.72C1610.13 689.28 1608.97 683.113 1608.97 675.22V559.78C1608.97 556.162 1610.13 553.202 1612.43 550.9C1614.89 548.433 1617.85 547.2 1621.31 547.2Z" fill="#EC6613"/>
<path d="M1798.6 575.813C1802.22 575.813 1805.18 577.047 1807.48 579.513C1809.78 581.816 1810.93 584.776 1810.93 588.393V694.953C1810.93 698.571 1809.78 701.613 1807.48 704.08C1805.18 706.382 1802.22 707.533 1798.6 707.533C1795.15 707.533 1792.19 706.382 1789.72 704.08C1787.42 701.613 1786.27 698.571 1786.27 694.953V677.193L1791.45 677.933C1791.45 680.893 1790.21 684.182 1787.75 687.8C1785.44 691.418 1782.24 694.953 1778.13 698.407C1774.01 701.696 1769.16 704.491 1763.57 706.793C1757.98 708.931 1751.98 710 1745.57 710C1734.22 710 1724.02 707.122 1714.98 701.367C1705.93 695.447 1698.78 687.389 1693.52 677.193C1688.26 666.998 1685.62 655.404 1685.62 642.413C1685.62 629.093 1688.26 617.418 1693.52 607.387C1698.78 597.191 1705.85 589.216 1714.73 583.46C1723.78 577.704 1733.81 574.827 1744.83 574.827C1751.9 574.827 1758.39 575.978 1764.31 578.28C1770.4 580.582 1775.66 583.542 1780.1 587.16C1784.54 590.778 1787.91 594.642 1790.21 598.753C1792.68 602.7 1793.91 606.482 1793.91 610.1L1786.27 610.84V588.393C1786.27 584.94 1787.42 581.98 1789.72 579.513C1792.19 577.047 1795.15 575.813 1798.6 575.813ZM1748.28 687.307C1756.01 687.307 1762.83 685.333 1768.75 681.387C1774.67 677.44 1779.28 672.096 1782.57 665.353C1785.86 658.447 1787.5 650.8 1787.5 642.413C1787.5 633.862 1785.86 626.216 1782.57 619.473C1779.28 612.731 1774.67 607.387 1768.75 603.44C1762.83 599.493 1756.01 597.52 1748.28 597.52C1740.71 597.52 1733.97 599.493 1728.05 603.44C1722.3 607.387 1717.69 612.731 1714.24 619.473C1710.95 626.216 1709.31 633.862 1709.31 642.413C1709.31 650.8 1710.95 658.447 1714.24 665.353C1717.69 672.096 1722.3 677.44 1728.05 681.387C1733.97 685.333 1740.71 687.307 1748.28 687.307Z" fill="#EC6613"/>
<path d="M1902.96 574.827C1911.84 574.827 1919.74 575.813 1926.64 577.787C1933.55 579.596 1938.9 582.227 1942.68 585.68C1946.62 588.969 1948.6 592.833 1948.6 597.273C1948.6 600.069 1947.78 602.7 1946.13 605.167C1944.49 607.469 1942.02 608.62 1938.73 608.62C1936.43 608.62 1934.46 608.209 1932.81 607.387C1931.33 606.564 1929.93 605.578 1928.62 604.427C1927.3 603.276 1925.66 602.124 1923.68 600.973C1921.88 599.987 1919.16 599.164 1915.54 598.507C1912.09 597.849 1908.97 597.52 1906.17 597.52C1897.46 597.52 1889.89 599.493 1883.48 603.44C1877.23 607.387 1872.29 612.731 1868.68 619.473C1865.22 626.216 1863.5 633.862 1863.5 642.413C1863.5 650.964 1865.22 658.611 1868.68 665.353C1872.29 672.096 1877.15 677.44 1883.23 681.387C1889.48 685.333 1896.72 687.307 1904.94 687.307C1909.87 687.307 1913.9 686.978 1917.02 686.32C1920.15 685.498 1922.86 684.511 1925.16 683.36C1927.63 681.88 1929.69 680.4 1931.33 678.92C1933.14 677.276 1935.61 676.453 1938.73 676.453C1942.35 676.453 1945.06 677.604 1946.87 679.907C1948.84 682.044 1949.83 684.758 1949.83 688.047C1949.83 691.664 1947.61 695.2 1943.17 698.653C1938.9 701.942 1933.14 704.656 1925.9 706.793C1918.67 708.931 1910.69 710 1901.98 710C1889.15 710 1877.97 707.04 1868.43 701.12C1859.06 695.2 1851.74 687.142 1846.48 676.947C1841.38 666.751 1838.83 655.24 1838.83 642.413C1838.83 629.422 1841.54 617.911 1846.97 607.88C1852.4 597.684 1859.96 589.627 1869.66 583.707C1879.37 577.787 1890.47 574.827 1902.96 574.827Z" fill="#EC6613"/>
<path d="M1987.71 707.533C1984.26 707.533 1981.3 706.382 1978.83 704.08C1976.53 701.613 1975.38 698.571 1975.38 694.953V537.58C1975.38 533.962 1976.53 531.002 1978.83 528.7C1981.3 526.233 1984.26 525 1987.71 525C1991.33 525 1994.29 526.233 1996.59 528.7C1998.89 531.002 2000.04 533.962 2000.04 537.58V694.953C2000.04 698.571 1998.89 701.613 1996.59 704.08C1994.29 706.382 1991.33 707.533 1987.71 707.533ZM2068.12 577.293C2071.25 577.293 2073.96 578.609 2076.26 581.24C2078.57 583.871 2079.72 586.502 2079.72 589.133C2079.72 592.422 2078.15 595.464 2075.03 598.26L1997.82 667.327L1996.84 638.96L2059 581.24C2061.63 578.609 2064.67 577.293 2068.12 577.293ZM2071.08 707.287C2067.63 707.287 2064.67 705.889 2062.2 703.093L2012.87 651.047L2031.62 633.78L2079.72 685.827C2082.35 688.622 2083.66 691.747 2083.66 695.2C2083.66 698.818 2082.18 701.778 2079.22 704.08C2076.43 706.218 2073.71 707.287 2071.08 707.287Z" fill="#EC6613"/>
</svg>